<?xml version="1.0" encoding="iso-8859-1"?>
<!-- Generator: Adobe Illustrator 19.0.0, SVG Export Plug-In . SVG Version: 6.00 Build 0)  -->
<svg version="1.1" id="Layer_1" xmlns="http://www.w3.org/2000/svg" xmlns:xlink="http://www.w3.org/1999/xlink" x="0px" y="0px"
	 viewBox="0 0 512 512" style="enable-background:new 0 0 512 512;" xml:space="preserve">
<path style="fill:#D7F3FF;" d="M511.735,267.416c0.172-3.781,0.259-7.586,0.259-11.416c0-141.386-114.614-256-255.988-256
	c-141.386,0-256,114.614-256,256c0,3.83,0.086,7.635,0.259,11.416c0.345,8.103,1.084,16.12,2.18,24.014
	c3.965,28.669,12.672,55.798,25.307,80.613C70.065,455.106,156.392,512,256.006,512c99.836,0,186.323-57.153,228.513-140.524
	c12.5-24.654,21.108-51.599,25.036-80.046C510.652,283.536,511.39,275.519,511.735,267.416z"/>
<g>
	<path style="fill:#F7B239;" d="M74.979,267.416l9.24,24.014l-38.795,12.508L2.444,291.43c-1.096-7.894-1.835-15.911-2.18-24.014
		H74.979z"/>
	<path style="fill:#F7B239;" d="M430.024,267.416h81.711c-0.39,8.103-1.225,16.12-2.465,24.014l-45.828,9.924l-33.417-9.924V267.416
		z"/>
	<path style="fill:#F7B239;" d="M469.04,291.43h40.516c-3.928,28.447-12.536,55.392-25.036,80.046l-15.48,7.385l-10.21-47.365
		L469.04,291.43z"/>
	<path style="fill:#F7B239;" d="M45.423,291.43l8.655,43.511l-8.655,43.919l-16.539-7.385l-1.133,0.566
		C15.116,347.227,6.41,320.097,2.444,291.428h42.979V291.43z"/>
</g>
<g>
	<rect x="434.331" y="291.43" style="fill:#E09B2D;" width="34.715" height="88.297"/>
	<rect x="45.423" y="291.43" style="fill:#E09B2D;" width="35.584" height="87.431"/>
</g>
<rect x="277.809" y="229.856" style="fill:#F7B239;" width="26.477" height="149.009"/>
<rect x="277.809" y="211.383" style="fill:#E09B2D;" width="26.477" height="18.472"/>
<g>
	<path style="fill:#F7B239;" d="M304.28,236.013h-26.477c-3.401,0-6.157-2.757-6.157-6.157s2.756-6.157,6.157-6.157h26.477
		c3.401,0,6.157,2.757,6.157,6.157S307.681,236.013,304.28,236.013z"/>
	<rect x="210.201" y="229.856" style="fill:#F7B239;" width="26.477" height="153.307"/>
</g>
<rect x="210.201" y="211.383" style="fill:#E09B2D;" width="26.477" height="18.472"/>
<g>
	<path style="fill:#F7B239;" d="M236.672,236.013h-26.477c-3.401,0-6.157-2.757-6.157-6.157s2.756-6.157,6.157-6.157h26.477
		c3.401,0,6.157,2.757,6.157,6.157S240.073,236.013,236.672,236.013z"/>
	<rect x="142.581" y="229.856" style="fill:#F7B239;" width="26.477" height="154.169"/>
</g>
<rect x="142.581" y="211.383" style="fill:#E09B2D;" width="26.477" height="18.472"/>
<g>
	<path style="fill:#F7B239;" d="M169.064,236.013h-26.477c-3.401,0-6.157-2.757-6.157-6.157s2.756-6.157,6.157-6.157h26.477
		c3.401,0,6.157,2.757,6.157,6.157S172.465,236.013,169.064,236.013z"/>
	<rect x="345.418" y="229.856" style="fill:#F7B239;" width="26.477" height="149.871"/>
</g>
<rect x="345.418" y="211.383" style="fill:#E09B2D;" width="26.477" height="18.472"/>
<g>
	<path style="fill:#F7B239;" d="M371.888,236.013h-26.477c-3.401,0-6.157-2.757-6.157-6.157s2.756-6.157,6.157-6.157h26.477
		c3.401,0,6.157,2.757,6.157,6.157S375.289,236.013,371.888,236.013z"/>
	<polygon style="fill:#F7B239;" points="100.218,229.856 100.218,371.476 73.741,371.476 73.741,291.43 73.741,267.416 
		73.741,229.856 	"/>
</g>
<rect x="73.741" y="211.383" style="fill:#E09B2D;" width="26.477" height="18.472"/>
<g>
	<path style="fill:#F7B239;" d="M100.218,236.013H73.741c-3.401,0-6.157-2.757-6.157-6.157s2.756-6.157,6.157-6.157h26.477
		c3.401,0,6.157,2.757,6.157,6.157S103.619,236.013,100.218,236.013z"/>
	<polygon style="fill:#F7B239;" points="438.259,291.43 438.259,377.138 411.782,377.138 411.782,229.856 438.259,229.856 
		438.259,267.416 	"/>
</g>
<rect x="411.782" y="211.383" style="fill:#E09B2D;" width="26.477" height="18.472"/>
<path style="fill:#F7B239;" d="M438.259,236.013h-26.477c-3.401,0-6.157-2.757-6.157-6.157s2.756-6.157,6.157-6.157h26.477
	c3.401,0,6.157,2.757,6.157,6.157S441.66,236.013,438.259,236.013z"/>
<path style="fill:#F4D39D;" d="M469.04,371.476h15.48C442.329,454.847,355.842,512,256.006,512
	c-99.614,0-185.929-56.894-228.242-139.945l1.121-0.579h16.539h29.556h26.477h41.131h26.477h41.131h26.477h41.131h26.477h41.131
	h26.477h41.131h26.477H469.04z"/>
<g>
	<path style="fill:#E09B2D;" d="M224.911,149.806c-3.401,0-6.157-2.757-6.157-6.157v-19.704c0-3.4,2.756-6.157,6.157-6.157
		s6.157,2.757,6.157,6.157v19.704C231.069,147.049,228.313,149.806,224.911,149.806z"/>
	<path style="fill:#E09B2D;" d="M245.637,149.806c-3.401,0-6.157-2.757-6.157-6.157v-19.704c0-3.4,2.756-6.157,6.157-6.157
		s6.157,2.757,6.157,6.157v19.704C251.794,147.049,249.038,149.806,245.637,149.806z"/>
	<path style="fill:#E09B2D;" d="M266.363,149.806c-3.401,0-6.157-2.757-6.157-6.157v-19.704c0-3.4,2.756-6.157,6.157-6.157
		s6.157,2.757,6.157,6.157v19.704C272.52,147.049,269.764,149.806,266.363,149.806z"/>
	<path style="fill:#E09B2D;" d="M287.101,149.806c-3.401,0-6.157-2.757-6.157-6.157v-19.704c0-3.4,2.756-6.157,6.157-6.157
		s6.157,2.757,6.157,6.157v19.704C293.258,147.049,290.502,149.806,287.101,149.806z"/>
</g>
<polygon style="fill:#F7B239;" points="306.497,147.962 306.497,175.671 293.332,175.671 256.006,175.671 218.668,175.671 
	205.515,175.671 205.515,147.962 205.515,139.342 224.911,139.342 245.637,139.342 266.363,139.342 287.101,139.342 
	306.497,139.342 "/>
<g>
	<polygon style="fill:#E09B2D;" points="414.867,147.962 414.867,175.671 405.323,175.671 367.985,175.671 330.658,175.671 
		306.497,175.671 306.497,147.962 	"/>
	<polygon style="fill:#E09B2D;" points="205.515,147.962 205.515,175.671 181.342,175.671 144.015,175.671 106.689,175.671 
		97.145,175.671 97.145,147.962 	"/>
</g>
<rect x="72.51" y="175.671" style="fill:#F7B239;" width="366.981" height="37.56"/>
<rect x="72.516" y="175.671" style="fill:#E09B2D;" width="366.981" height="14.31"/>
<path style="fill:#F7B239;" d="M427.182,154.12H84.83c-3.401,0-6.157-2.757-6.157-6.157s2.756-6.157,6.157-6.157h342.351
	c3.401,0,6.157,2.757,6.157,6.157S430.583,154.12,427.182,154.12z"/>
<g>
	<path style="fill:#E09B2D;" d="M106.689,200.916c-2.72,0-4.926-2.206-4.926-4.926v-13.546c0-2.72,2.206-4.926,4.926-4.926
		s4.926,2.206,4.926,4.926v13.546C111.615,198.71,109.41,200.916,106.689,200.916z"/>
	<path style="fill:#E09B2D;" d="M144.015,200.916c-2.72,0-4.926-2.206-4.926-4.926v-13.546c0-2.72,2.206-4.926,4.926-4.926
		s4.926,2.206,4.926,4.926v13.546C148.941,198.71,146.736,200.916,144.015,200.916z"/>
	<path style="fill:#E09B2D;" d="M181.342,200.916c-2.72,0-4.926-2.206-4.926-4.926v-13.546c0-2.72,2.206-4.926,4.926-4.926
		c2.72,0,4.926,2.206,4.926,4.926v13.546C186.267,198.71,184.062,200.916,181.342,200.916z"/>
	<path style="fill:#E09B2D;" d="M330.658,200.916c-2.72,0-4.926-2.206-4.926-4.926v-13.546c0-2.72,2.206-4.926,4.926-4.926
		s4.926,2.206,4.926,4.926v13.546C335.584,198.71,333.379,200.916,330.658,200.916z"/>
	<path style="fill:#E09B2D;" d="M367.985,200.916c-2.72,0-4.926-2.206-4.926-4.926v-13.546c0-2.72,2.206-4.926,4.926-4.926
		c2.72,0,4.926,2.206,4.926,4.926v13.546C372.911,198.71,370.705,200.916,367.985,200.916z"/>
	<path style="fill:#E09B2D;" d="M405.323,200.916c-2.72,0-4.926-2.206-4.926-4.926v-13.546c0-2.72,2.206-4.926,4.926-4.926
		c2.72,0,4.926,2.206,4.926,4.926v13.546C410.249,198.71,408.043,200.916,405.323,200.916z"/>
	<path style="fill:#E09B2D;" d="M256.006,200.916c-2.72,0-4.926-2.206-4.926-4.926v-13.546c0-2.72,2.206-4.926,4.926-4.926
		s4.926,2.206,4.926,4.926v13.546C260.932,198.71,258.726,200.916,256.006,200.916z"/>
	<path style="fill:#E09B2D;" d="M293.332,200.916c-2.72,0-4.926-2.206-4.926-4.926v-13.546c0-2.72,2.206-4.926,4.926-4.926
		s4.926,2.206,4.926,4.926v13.546C298.258,198.71,296.053,200.916,293.332,200.916z"/>
	<path style="fill:#E09B2D;" d="M218.668,200.916c-2.72,0-4.926-2.206-4.926-4.926v-13.546c0-2.72,2.206-4.926,4.926-4.926
		s4.926,2.206,4.926,4.926v13.546C223.594,198.71,221.388,200.916,218.668,200.916z"/>
</g>
<path style="fill:#F7B239;" d="M439.497,181.828H72.516c-3.401,0-6.157-2.757-6.157-6.157s2.756-6.157,6.157-6.157h366.981
	c3.401,0,6.157,2.757,6.157,6.157S442.898,181.828,439.497,181.828z"/>
<g>
</g>
<g>
</g>
<g>
</g>
<g>
</g>
<g>
</g>
<g>
</g>
<g>
</g>
<g>
</g>
<g>
</g>
<g>
</g>
<g>
</g>
<g>
</g>
<g>
</g>
<g>
</g>
<g>
</g>
</svg>
