<?xml version="1.0" encoding="iso-8859-1"?>
<!-- Generator: Adobe Illustrator 19.0.0, SVG Export Plug-In . SVG Version: 6.00 Build 0)  -->
<svg version="1.1" id="Capa_1" xmlns="http://www.w3.org/2000/svg" xmlns:xlink="http://www.w3.org/1999/xlink" x="0px" y="0px"
	 viewBox="0 0 512 512" style="enable-background:new 0 0 512 512;" xml:space="preserve">
<circle style="fill:#87D7F5;" cx="256" cy="256" r="256"/>
<g>
	<path style="fill:#BAEAF7;" d="M104.321,49.771h39.764c3.678,0,7.011,1.494,9.415,3.908c2.414,2.414,3.908,5.736,3.908,9.425
		c0,7.356-5.966,13.322-13.322,13.322h-31.5c-3.678,0-7.011,1.484-9.415,3.897c-2.414,2.414-3.908,5.736-3.908,9.425
		c0,7.356,5.966,13.322,13.322,13.322h73.306c3.678,0,7.011,1.494,9.415,3.908c2.414,2.403,3.908,5.736,3.908,9.415
		c0,7.356-5.966,13.322-13.322,13.322H86.473c-3.678,0-7.011,1.494-9.425,3.908c-2.403,2.403-3.897,5.736-3.897,9.415
		c0,7.356,5.966,13.322,13.322,13.322h39.16c3.678,0,7.011,1.494,9.415,3.908c2.414,2.403,3.908,5.736,3.908,9.415
		c0,7.356-5.966,13.322-13.322,13.322l-115.057,0.001C26.625,128.971,60.021,82.408,104.321,49.771z"/>
	<path style="fill:#BAEAF7;" d="M379.038,204.982h73.16c7.356,0,13.322-5.966,13.322-13.322c0-3.679-1.494-7.012-3.897-9.415
		c-2.414-2.414-5.747-3.908-9.425-3.908H423.78c-7.356,0-13.322-5.966-13.322-13.322c0-3.679,1.494-7.012,3.908-9.415
		c2.404-2.414,5.737-3.908,9.415-3.908h11.306h54.756c11.083,24.809,18.329,51.705,20.995,79.936l-131.802-0.001
		c-7.356,0-13.322-5.966-13.322-13.322c0-3.679,1.494-7.012,3.908-9.415C372.027,206.476,375.36,204.982,379.038,204.982z"/>
</g>
<g>
	<path style="fill:#BFA993;" d="M162.438,494.359c2.398,0.942,4.818,1.838,7.251,2.709h55.132v-277.9h-62.383L162.438,494.359
		L162.438,494.359z"/>
	<rect x="162.44" y="219.17" style="fill:#BFA993;" width="62.38" height="150.48"/>
</g>
<g>
	<path style="fill:#AA927D;" d="M162.437,494.359c2.396,0.941,4.816,1.837,7.248,2.707h13.638v-277.9h-20.886V494.359z"/>
	<rect x="162.44" y="219.17" style="fill:#AA927D;" width="20.886" height="150.48"/>
</g>
<path style="fill:#BFA993;" d="M100.055,459.014c18.888,14.53,39.851,26.495,62.382,35.346V313.405h-62.382
	C100.055,313.405,100.055,459.014,100.055,459.014z"/>
<path style="fill:#AA927D;" d="M100.055,459.014c7.349,5.654,15.004,10.928,22.954,15.771v-161.38h-22.954V459.014z"/>
<g>
	<path style="fill:#88888F;" d="M341.444,25.467c0-4.124-3.342-7.466-7.466-7.466h-31.191c-4.124,0-7.466,3.342-7.466,7.466
		s3.342,7.466,7.466,7.466h31.191C338.102,32.933,341.444,29.591,341.444,25.467z"/>
	<path style="fill:#88888F;" d="M325.849,7.466v62.382c0,4.124-3.342,7.466-7.466,7.466s-7.466-3.342-7.466-7.466V7.466
		c0-4.124,3.342-7.466,7.466-7.466C322.506,0,325.849,3.342,325.849,7.466z"/>
</g>
<polygon style="fill:#B9B9BA;" points="310.917,61.304 287.191,219.168 349.574,219.168 325.849,61.304 "/>
<polygon style="fill:#9D9D9E;" points="315.543,61.304 306.52,219.168 330.245,219.168 321.222,61.304 "/>
<path style="fill:#BFA993;" d="M287.191,497.068h55.121c2.436-0.872,4.86-1.769,7.262-2.713V219.168h-62.382v277.9H287.191z"/>
<rect x="287.19" y="219.17" style="fill:#AA927D;" width="20.886" height="277.9"/>
<path style="fill:#BFA993;" d="M349.574,494.355c22.532-8.853,43.495-20.819,62.382-35.35v-145.6h-62.382V494.355z"/>
<g>
	<path style="fill:#AA927D;" d="M349.574,494.355c6.566-2.58,12.994-5.435,19.282-8.529V313.405h-19.282V494.355z"/>
	<path style="fill:#AA927D;" d="M412.786,384.581H99.214c-4.124,0-7.466-3.342-7.466-7.466s3.342-7.466,7.466-7.466h313.571
		c4.124,0,7.466,3.342,7.466,7.466C420.252,381.238,416.909,384.581,412.786,384.581z"/>
</g>
<g>
	<rect x="162.44" y="369.65" style="fill:#99806D;" width="20.886" height="14.932"/>
	<rect x="349.57" y="369.65" style="fill:#99806D;" width="19.282" height="14.932"/>
	<rect x="287.19" y="369.65" style="fill:#99806D;" width="20.886" height="14.932"/>
</g>
<path style="fill:#AA927D;" d="M412.786,313.405H99.214c-4.124,0-7.466-3.342-7.466-7.466s3.342-7.466,7.466-7.466h313.571
	c4.124,0,7.466,3.342,7.466,7.466C420.252,310.063,416.909,313.405,412.786,313.405z"/>
<rect x="349.57" y="298.47" style="fill:#99806D;" width="19.282" height="14.932"/>
<path style="fill:#AA927D;" d="M412.786,448.29H99.214c-4.124,0-7.466-3.342-7.466-7.466s3.342-7.466,7.466-7.466h313.571
	c4.124,0,7.466,3.342,7.466,7.466C420.252,444.948,416.909,448.29,412.786,448.29z"/>
<g>
	<rect x="162.44" y="433.36" style="fill:#99806D;" width="20.886" height="14.932"/>
	<rect x="349.57" y="433.36" style="fill:#99806D;" width="19.282" height="14.932"/>
	<rect x="287.19" y="433.36" style="fill:#99806D;" width="20.886" height="14.932"/>
</g>
<rect x="224.81" y="273.59" style="fill:#BFA993;" width="62.38" height="223.48"/>
<g>
	<rect x="224.81" y="273.59" style="fill:#AA927D;" width="20.886" height="223.48"/>
	<rect x="224.81" y="369.65" style="fill:#AA927D;" width="62.38" height="127.42"/>
</g>
<rect x="224.81" y="369.65" style="fill:#99806D;" width="20.886" height="127.42"/>
<rect x="287.19" y="219.17" style="fill:#BFA993;" width="62.38" height="150.48"/>
<g>
	<rect x="287.19" y="219.17" style="fill:#AA927D;" width="20.886" height="150.48"/>
	<rect x="287.19" y="291.01" style="fill:#AA927D;" width="62.38" height="22.398"/>
</g>
<rect x="287.19" y="291.01" style="fill:#3F8CD1;" width="20.886" height="22.398"/>
<rect x="287.19" y="291.01" style="fill:#99806D;" width="20.886" height="22.398"/>
<path style="fill:#AA927D;" d="M349.574,226.633h-62.382c-4.124,0-7.466-3.342-7.466-7.466c0-4.124,3.342-7.466,7.466-7.466h62.382
	c4.124,0,7.466,3.342,7.466,7.466S353.697,226.633,349.574,226.633z"/>
<path style="fill:#88888F;" d="M263.466,126.258v62.382c0,4.124-3.342,7.466-7.466,7.466s-7.466-3.342-7.466-7.466v-62.382
	c0-4.124,3.342-7.466,7.466-7.466C260.124,118.792,263.466,122.134,263.466,126.258z"/>
<polygon style="fill:#B9B9BA;" points="248.534,165.413 224.809,273.586 287.191,273.586 263.466,165.413 "/>
<polygon style="fill:#9D9D9E;" points="263.466,165.413 248.534,165.413 224.809,273.586 245.695,273.586 263.53,165.703 "/>
<path style="fill:#B9B9BA;" d="M353.057,283.541h-65.866v14.932h65.866c4.124,0,7.466-3.342,7.466-7.466
	S357.181,283.541,353.057,283.541z"/>
<rect x="287.19" y="283.54" style="fill:#9D9D9E;" width="20.885" height="14.932"/>
<g>
	<path style="fill:#CBD0D1;" d="M317.013,235.736l-8.704,14.356c-0.152,0.25-0.232,0.537-0.232,0.83v21.062
		c0,0.884,0.717,1.601,1.601,1.601h17.408c0.884,0,1.601-0.717,1.601-1.601v-21.062c0-0.293-0.08-0.58-0.232-0.83l-8.704-14.356
		C319.128,234.708,317.636,234.708,317.013,235.736z"/>
	<path style="fill:#CBD0D1;" d="M317.013,329.707l-8.704,14.356c-0.152,0.25-0.232,0.538-0.232,0.83v15.09
		c0,0.884,0.717,1.601,1.601,1.601h17.408c0.884,0,1.601-0.717,1.601-1.601v-15.09c0-0.293-0.08-0.58-0.232-0.83l-8.704-14.356
		C319.128,328.678,317.636,328.678,317.013,329.707z"/>
	<path style="fill:#CBD0D1;" d="M254.631,297.852l-8.704,14.356c-0.152,0.25-0.232,0.538-0.232,0.83v15.089
		c0,0.885,0.717,1.601,1.601,1.601h17.408c0.884,0,1.601-0.717,1.601-1.601v-15.089c0-0.293-0.08-0.58-0.232-0.83l-8.704-14.356
		C256.746,296.824,255.254,296.824,254.631,297.852z"/>
	<path style="fill:#CBD0D1;" d="M317.013,393.416l-8.704,14.356c-0.152,0.25-0.232,0.538-0.232,0.83v15.09
		c0,0.884,0.717,1.601,1.601,1.601h17.408c0.884,0,1.601-0.717,1.601-1.601v-15.09c0-0.293-0.08-0.58-0.232-0.83l-8.704-14.356
		C319.128,392.388,317.636,392.388,317.013,393.416z"/>
	<path style="fill:#CBD0D1;" d="M317.013,457.126l-8.704,14.356c-0.152,0.25-0.232,0.538-0.232,0.83v15.09
		c0,0.884,0.717,1.601,1.601,1.601h17.408c0.884,0,1.601-0.717,1.601-1.601v-15.09c0-0.293-0.08-0.58-0.232-0.83l-8.704-14.356
		C319.128,456.098,317.636,456.098,317.013,457.126z"/>
</g>
<path style="fill:#BFA993;" d="M275.068,380.997l-16.476-27.175c-1.18-1.946-4.004-1.946-5.184,0l-16.476,27.175
	c-0.287,0.474-0.439,1.017-0.439,1.572v13.586v3.918v11.06v2.526v11.06v3.918v13.586c0,1.674,1.357,3.031,3.031,3.031h32.952
	c1.674,0,3.031-1.357,3.031-3.031v-13.586v-3.918v-11.06v-2.526v-11.06v-3.918v-13.586
	C275.507,382.014,275.355,381.471,275.068,380.997z"/>
<path style="fill:#AA927D;" d="M256,442.221v-13.586v-3.918v-11.06v-2.526v-11.06v-3.918v-13.585c0-0.554,0.152-1.098,0.439-1.572
	l9.314-15.363l-7.162-11.812c-1.179-1.946-4.004-1.946-5.183,0l-16.477,27.175c-0.287,0.474-0.438,1.017-0.438,1.572v13.585v3.918
	v11.06v2.526v11.06v3.918v13.586c0,1.674,1.357,3.031,3.031,3.031h19.507C257.357,445.252,256,443.895,256,442.221z"/>
<g>
	<path style="fill:#CBD0D1;" d="M377.56,329.707l-8.704,14.356c-0.152,0.25-0.232,0.538-0.232,0.83v15.09
		c0,0.884,0.717,1.601,1.601,1.601h17.408c0.884,0,1.601-0.717,1.601-1.601v-15.09c0-0.293-0.08-0.58-0.232-0.83l-8.704-14.356
		C379.675,328.678,378.183,328.678,377.56,329.707z"/>
	<path style="fill:#CBD0D1;" d="M377.56,393.416l-8.704,14.356c-0.152,0.25-0.232,0.538-0.232,0.83v15.09
		c0,0.884,0.717,1.601,1.601,1.601h17.408c0.884,0,1.601-0.717,1.601-1.601v-15.09c0-0.293-0.08-0.58-0.232-0.83l-8.704-14.356
		C379.675,392.388,378.183,392.388,377.56,393.416z"/>
	<path style="fill:#CBD0D1;" d="M380.299,457.126c-0.624-1.028-2.115-1.028-2.739,0l-8.704,14.356
		c-0.152,0.25-0.232,0.537-0.232,0.83v13.629c7.058-3.463,13.937-7.234,20.611-11.309v-2.32c0-0.293-0.081-0.58-0.232-0.83
		L380.299,457.126z"/>
</g>
<g>
	<path style="fill:#88888F;" d="M170.567,25.467c0-4.124,3.342-7.466,7.466-7.466h31.191c4.124,0,7.466,3.342,7.466,7.466
		s-3.342,7.466-7.466,7.466h-31.191C173.91,32.933,170.567,29.591,170.567,25.467z"/>
	<path style="fill:#88888F;" d="M186.163,7.466v62.382c0,4.124,3.342,7.466,7.466,7.466c4.124,0,7.466-3.342,7.466-7.466V7.466
		c0-4.124-3.342-7.466-7.466-7.466C189.505,0,186.163,3.342,186.163,7.466z"/>
</g>
<polygon style="fill:#B9B9BA;" points="201.095,61.304 224.82,219.168 162.438,219.168 186.163,61.304 "/>
<polygon style="fill:#9D9D9E;" points="196.468,61.304 205.492,219.168 181.766,219.168 190.79,61.304 "/>
<rect x="162.44" y="291.01" style="fill:#AA927D;" width="62.38" height="22.398"/>
<rect x="162.44" y="291.01" style="fill:#99806D;" width="20.885" height="22.398"/>
<path style="fill:#AA927D;" d="M162.438,226.633h62.382c4.124,0,7.466-3.342,7.466-7.466c0-4.124-3.342-7.466-7.466-7.466h-62.382
	c-4.124,0-7.466,3.342-7.466,7.466S158.314,226.633,162.438,226.633z"/>
<path style="fill:#B9B9BA;" d="M158.954,283.541h65.866v14.932h-65.866c-4.124,0-7.466-3.342-7.466-7.466
	C151.488,286.883,154.83,283.541,158.954,283.541z"/>
<g>
	<path style="fill:#CBD0D1;" d="M194.998,235.736l8.704,14.356c0.152,0.25,0.232,0.537,0.232,0.83v21.062
		c0,0.884-0.717,1.601-1.601,1.601h-17.408c-0.884,0-1.601-0.717-1.601-1.601v-21.062c0-0.293,0.08-0.58,0.232-0.83l8.704-14.356
		C192.883,234.708,194.375,234.708,194.998,235.736z"/>
	<path style="fill:#CBD0D1;" d="M194.998,329.707l8.704,14.356c0.152,0.25,0.232,0.538,0.232,0.83v15.09
		c0,0.884-0.717,1.601-1.601,1.601h-17.408c-0.884,0-1.601-0.717-1.601-1.601v-15.09c0-0.293,0.08-0.58,0.232-0.83l8.704-14.356
		C192.883,328.678,194.375,328.678,194.998,329.707z"/>
	<path style="fill:#CBD0D1;" d="M194.998,393.416l8.704,14.356c0.152,0.25,0.232,0.538,0.232,0.83v15.09
		c0,0.884-0.717,1.601-1.601,1.601h-17.408c-0.884,0-1.601-0.717-1.601-1.601v-15.09c0-0.293,0.08-0.58,0.232-0.83l8.704-14.356
		C192.883,392.388,194.375,392.388,194.998,393.416z"/>
	<path style="fill:#CBD0D1;" d="M194.998,457.126l8.704,14.356c0.152,0.25,0.232,0.538,0.232,0.83v15.09
		c0,0.884-0.717,1.601-1.601,1.601h-17.408c-0.884,0-1.601-0.717-1.601-1.601v-15.09c0-0.293,0.08-0.58,0.232-0.83l8.704-14.356
		C192.883,456.098,194.375,456.098,194.998,457.126z"/>
	<path style="fill:#CBD0D1;" d="M134.451,329.707l8.704,14.356c0.152,0.25,0.232,0.538,0.232,0.83v15.09
		c0,0.884-0.717,1.601-1.601,1.601h-17.408c-0.884,0-1.601-0.717-1.601-1.601v-15.09c0-0.293,0.08-0.58,0.232-0.83l8.704-14.356
		C132.336,328.678,133.828,328.678,134.451,329.707z"/>
	<path style="fill:#CBD0D1;" d="M134.451,393.416l8.704,14.356c0.152,0.25,0.232,0.538,0.232,0.83v15.09
		c0,0.884-0.717,1.601-1.601,1.601h-17.408c-0.884,0-1.601-0.717-1.601-1.601v-15.09c0-0.293,0.08-0.58,0.232-0.83l8.704-14.356
		C132.336,392.388,133.828,392.388,134.451,393.416z"/>
	<path style="fill:#CBD0D1;" d="M134.451,457.126c-0.623-1.028-2.115-1.028-2.739,0l-8.704,14.356
		c-0.152,0.25-0.232,0.537-0.232,0.83v2.327c6.673,4.075,13.553,7.845,20.61,11.308v-13.635c0-0.293-0.08-0.58-0.232-0.83
		L134.451,457.126z"/>
</g>
<g>
	<rect x="224.81" y="433.36" style="fill:#99806D;" width="62.38" height="63.71"/>
	<rect x="224.81" y="433.36" style="fill:#99806D;" width="20.886" height="63.71"/>
</g>
<path style="fill:#E8AB79;" d="M275.068,440.343l-16.476-27.175c-1.18-1.946-4.004-1.946-5.184,0l-16.476,27.175
	c-0.287,0.474-0.439,1.017-0.439,1.572V455.5v3.918v11.06v2.526v11.06v3.918v13.586c0,1.674,1.357,3.031,3.031,3.031h32.952
	c1.674,0,3.031-1.357,3.031-3.031v-13.586v-3.918v-11.06v-2.526v-11.06V455.5v-13.586
	C275.507,441.36,275.355,440.816,275.068,440.343z"/>
<path style="fill:#D89E68;" d="M256,501.566V487.98v-3.918v-11.06v-2.526v-11.06V455.5v-13.586c0-0.554,0.152-1.098,0.439-1.572
	l9.314-15.363l-7.162-11.812c-1.179-1.946-4.004-1.946-5.183,0l-16.477,27.175c-0.287,0.474-0.438,1.017-0.438,1.572V455.5v3.918
	v11.06v2.526v11.06v3.918v13.586c0,1.674,1.357,3.031,3.031,3.031h19.507C257.357,504.598,256,503.241,256,501.566z"/>
<path style="fill:#B9B9BA;" d="M169.688,497.068C196.656,506.725,225.71,512,256,512s59.344-5.275,86.312-14.932H169.688z"/>
<g>
	<path style="fill:#99806D;" d="M118.377,377.115c0-4.124,3.342-7.466,7.466-7.466H99.214c-4.124,0-7.466,3.342-7.466,7.466
		s3.342,7.466,7.466,7.466h26.629C121.719,384.581,118.377,381.238,118.377,377.115z"/>
	<path style="fill:#99806D;" d="M118.377,305.939c0-4.124,3.342-7.466,7.466-7.466H99.214c-4.124,0-7.466,3.342-7.466,7.466
		s3.342,7.466,7.466,7.466h26.629C121.719,313.405,118.377,310.063,118.377,305.939z"/>
	<path style="fill:#99806D;" d="M181.6,219.167c0-4.124,3.342-7.466,7.466-7.466h-26.629c-4.124,0-7.466,3.342-7.466,7.466
		c0,4.124,3.342,7.466,7.466,7.466h26.629C184.943,226.633,181.6,223.291,181.6,219.167z"/>
</g>
<path style="fill:#9D9D9E;" d="M178.117,291.007c0-4.124,3.342-7.466,7.466-7.466h-26.629c-4.124,0-7.466,3.342-7.466,7.466
	s3.342,7.466,7.466,7.466h26.629C181.459,298.473,178.117,295.131,178.117,291.007z"/>
<g>
	<path style="fill:#99806D;" d="M306.354,219.167c0-4.124,3.342-7.466,7.466-7.466h-26.629c-4.124,0-7.466,3.342-7.466,7.466
		c0,4.124,3.342,7.466,7.466,7.466h26.629C309.697,226.633,306.354,223.291,306.354,219.167z"/>
	<path style="fill:#99806D;" d="M118.377,440.824c0-4.124,3.342-7.466,7.466-7.466H99.214c-4.124,0-7.466,3.342-7.466,7.466
		s3.342,7.466,7.466,7.466h26.629C121.719,448.29,118.377,444.948,118.377,440.824z"/>
</g>
<g>
</g>
<g>
</g>
<g>
</g>
<g>
</g>
<g>
</g>
<g>
</g>
<g>
</g>
<g>
</g>
<g>
</g>
<g>
</g>
<g>
</g>
<g>
</g>
<g>
</g>
<g>
</g>
<g>
</g>
</svg>
