<svg height="512pt" viewBox="0 0 512 512" width="512pt" xmlns="http://www.w3.org/2000/svg"><path d="m512 256c0 141.386719-114.613281 256-256 256s-256-114.613281-256-256 114.613281-256 256-256 256 114.613281 256 256zm0 0" fill="#5a5a5a"/><path d="m512 256c0-4.472656-.117188-8.914062-.34375-13.332031l-132.496094-132.496094-6.578125 9.242187-47.375-47.378906-19.082031 20.835938-40.867188-40.871094-18 47 81.710938 81.714844-3.195312 4.492187-123.464844-122.304687 7.503906 48.234375 41.339844 41.339843-183.539063 219.097657 134.789063 134.789062c17.285156 3.683594 35.210937 5.636719 53.597656 5.636719 141.386719 0 256-114.613281 256-256zm0 0" fill="#353535"/><path d="m256.257812 149.917969 27.261719 84.304687c7.757813 23.980469 17.023438 47.449219 27.746094 70.261719l44.976563 95.675781 88.402343-28.589844-19.570312-103.890624c-4.664063-24.769532-10.894531-49.222657-18.652344-73.203126l-27.261719-84.304687zm0 0" fill="#ffda00"/><path d="m425.074219 267.679688c-4.664063-24.769532-10.894531-49.222657-18.652344-73.203126l-27.261719-84.304687-63.800781 20.632813 88.375 254 40.910156-13.230469zm0 0" fill="#ffc200"/><path d="m379.160156 110.171875-122.902344 39.746094 12.414063 38.386719 137.75 6.167968zm0 0" fill="#fff"/><path d="m406.421875 194.472656-27.261719-84.300781-63.800781 20.632813 21.0625 60.535156zm0 0" fill="#dce1eb"/><path d="m339.578125 263.199219c-1.78125-5.5-7.679687-8.515625-13.179687-6.738281-5.5 1.777343-8.515626 7.679687-6.738282 13.179687s7.679688 8.515625 13.179688 6.738281c5.5-1.78125 8.515625-7.679687 6.738281-13.179687zm0 0" fill="#fff"/><path d="m357.199219 323.496094c-.738281-2.277344-3.183594-3.527344-5.464844-2.792969-2.277344.738281-3.53125 3.183594-2.792969 5.464844.738282 2.28125 3.183594 3.53125 5.464844 2.792969 2.28125-.738282 3.53125-3.183594 2.792969-5.464844zm0 0" fill="#fff"/><path d="m401.640625 282.566406c-1.820313-5.636718-7.863281-8.726562-13.496094-6.902344-5.636719 1.820313-8.726562 7.863282-6.902343 13.5 1.820312 5.632813 7.863281 8.722657 13.5 6.902344 5.632812-1.824218 8.722656-7.867187 6.898437-13.5zm0 0" fill="#dce1eb"/><path d="m408.554688 348.742188c-.648438-2.011719-2.808594-3.117188-4.820313-2.464844-2.011719.648437-3.117187 2.808594-2.464844 4.820312.648438 2.011719 2.808594 3.117188 4.820313 2.464844 2.011718-.652344 3.117187-2.808594 2.464844-4.820312zm0 0" fill="#dce1eb"/><path d="m256 149.917969-27.265625 84.304687c-7.753906 23.980469-17.023437 47.449219-27.746094 70.261719l-44.972656 95.675781-88.402344-28.589844 19.566407-103.890624c4.667968-24.769532 10.894531-49.222657 18.652343-73.203126l27.265625-84.304687zm0 0" fill="#ffda00"/><path d="m192.9375 129.523438-78.125 257.3125 41.203125 13.324218 44.972656-95.675781c10.722657-22.8125 19.992188-46.28125 27.746094-70.265625l27.265625-84.300781zm0 0" fill="#ffc200"/><path d="m133.097656 110.171875 122.902344 39.746094-12.414062 38.386719-137.753907 6.167968zm0 0" fill="#fff"/><path d="m256 149.917969-63.0625-20.394531-18.792969 61.890624 69.441407-3.109374zm0 0" fill="#dce1eb"/><path d="m185.863281 256.445312c-5.5-1.777343-11.398437 1.238282-13.179687 6.738282-1.777344 5.5 1.238281 11.398437 6.738281 13.179687 5.5 1.777344 11.402344-1.238281 13.179687-6.738281 1.777344-5.5-1.238281-11.402344-6.738281-13.179688zm0 0" fill="#dce1eb"/><path d="m160.53125 320.6875c-2.28125-.738281-4.726562.511719-5.464844 2.792969-.738281 2.277343.511719 4.726562 2.792969 5.460937 2.28125.738282 4.726563-.511718 5.464844-2.792968.734375-2.277344-.515625-4.726563-2.792969-5.460938zm0 0" fill="#dce1eb"/><g fill="#fff"><path d="m124.121094 275.644531c-5.632813-1.820312-11.675782 1.269531-13.5 6.902344-1.820313 5.636719 1.269531 11.679687 6.902344 13.5 5.636718 1.824219 11.679687-1.265625 13.5-6.902344 1.824218-5.632812-1.265626-11.675781-6.902344-13.5zm0 0"/><path d="m108.53125 346.257812c-2.011719-.652343-4.171875.453126-4.820312 2.464844-.652344 2.011719.453124 4.171875 2.464843 4.820313 2.011719.652343 4.167969-.453125 4.820313-2.464844s-.453125-4.167969-2.464844-4.820313zm0 0"/><path d="m247.257812 52h18v47h-18zm0 0"/></g><path d="m255.644531 52h9.613281v47h-9.613281zm0 0" fill="#dce1eb"/><path d="m186.800781 72.042969 15.515625-9.132813 23.015625 39.101563-15.511719 9.128906zm0 0" fill="#fff"/><path d="m286.671875 101.988281 23.019531-39.101562 15.511719 9.132812-23.019531 39.101563zm0 0" fill="#dce1eb"/></svg>