<svg xmlns="http://www.w3.org/2000/svg" viewBox="0 0 276.98 253.65"><defs><style>.cls-1{fill:none;stroke:#039bf9;stroke-miterlimit:10;stroke-width:9px;}</style></defs><title>Elbe</title><g id="Ebene_2" data-name="Ebene 2"><g id="Flüsse"><path class="cls-1" d="M2.65,3.64s11,8,19,7,18,14,21,16,19,7,25,13,7,6,12,7,13-1,16,2,14,17,18,17,26,8,30,10,13,7,14,9,2,17,0,23,0,17-2,18-7,6-9,9-8,13-5,15,13,7,13,9,1,7,5,8,29-3,31,0,6,2,6,6-2,8,2,9,6,2,8,6,8,4,9,8,7,12,8,14,3,9,5,9,19,12,22,12,17,8,19,8,4,3,2,5-4,6-5,8"/></g></g></svg>