<svg xmlns="http://www.w3.org/2000/svg" viewBox="0 0 451.12 604"><defs><style>.cls-1{fill:#97b57c;}.cls-2{fill:#9db983;}.cls-3{fill:#a0bb88;}.cls-4{fill:#a7c090;}.cls-5{fill:#a5bf8e;}.cls-6{fill:none;stroke:#039bf9;stroke-miterlimit:10;stroke-width:0.5px;}</style></defs><title>germany</title><g id="Ebene_2" data-name="Ebene 2"><g id="Ebene_1-2" data-name="Ebene 1"><path class="cls-1" d="M144.72,0h6c6.67,2.68,13.56,4.93,19.95,8.17,4.62,2.34,8.32,2.63,12.31-.76,1.16-1,3.22-2.27,4.22-1.86a172.42,172.42,0,0,1,16.09,7.76c1.07.58,1.62,2.46,2,3.86,2,6.6,3,13.08-5.71,18.33,7.58.57,14.67-1.1,14.06,8.43,7.57-5.34,7.5-5.23,15.31-.25a34.86,34.86,0,0,0,9,4.1c1.85.51,4.16-.14,6.15-.67,4.6-1.21,9.13-2.66,13.68-4l-.07-.06c-.76,3-2.15,6-2.15,9a11.34,11.34,0,0,1-6,10.65,57.32,57.32,0,0,0-7.86,5.22c-.72.61-.79,3-.2,3.93a72.72,72.72,0,0,0,5.55,7.2c7-5.86,6.93-5.74,17-1.6a32.4,32.4,0,0,0,8.69,1.74c.66.08,1.82-1.15,2.18-2,4.81-11.37,14.14-17.31,26.23-16.18,3,.28,4.18-.59,5.74-3.11,1.67-2.71,4.47-5.84,7.28-6.44A15.76,15.76,0,0,0,323,46.83c3-3.1,6.36-6.53,11.24-4.25,3,1.39,4.78,1,6.85-1.42,2.33-2.74,4.6-2.88,6.47.87A53.36,53.36,0,0,0,352,48.56l1.83,2.12q6.22,7.08,12.46,14.14a81.75,81.75,0,0,1,8.79-4.92c6-2.64,14.77,2,15.53,8.08l-7.38-1c-.95,6,1.81,7.73,11.51,5.66-1.14-1.75-2.1-3.2-3.05-4.65,5.13-.56,10.86,5.24,11.19,11.32-3.8,1.14-7.68,2.09-11.34,3.58-.78.31-1.44,3.45-1,3.76,2.21,1.66,4.64,3.5,7.25,4,6.92,1.42,8,2.29,9.61,9.28,1.5,6.48,2.66,13.15,5.17,19.24,3.11,7.56,1.85,14.23-1.5,21.07a116.8,116.8,0,0,0-5.78,12.7c-2.53,7.25-1.08,11.41,4.73,16.27,3.84,3.2,7.43,6.73,11.46,9.66,4.55,3.3,6,6.9,3.88,12.39s-1,10.78,3,15.34c5.95,6.75,7.75,21.37,2.73,28.9-3.25,4.88-2.42,8.69-.09,13.35,2.56,5.13,4.24,10.69,6.59,15.94a7.38,7.38,0,0,0,3.53,3.65c5.24,2,8.25,5.9,8.87,11.15.78,6.57,1.59,13.33.85,19.83-.63,5.43-3,10.83-5.49,15.83-1.88,3.82-5.17,3.78-8.1.58a17,17,0,0,1-3.23-5c-2.64-6.54-5.17-8.37-11.91-8.12-4.43.16-6.82,3.93-4.19,7.38,2.39,3.14,1.3,5-1.3,6.43-6.35,3.53-12.81,6.88-19.31,10.13a27.92,27.92,0,0,1-7.89,2.94c-4.34.65-8.47.83-10.41,5.9-.52,1.37-2.78,2.32-4.44,3a53.93,53.93,0,0,0-20.38,14,6.66,6.66,0,0,1-5.45,1.82,15.68,15.68,0,0,0-14.21,2.67c-7,5.34-13.76,11-20.32,16.86-4.12,3.67-3.9,6.64.23,10.53,3.39,3.19,6.94,6.22,10.51,9.21,3.11,2.61,3.74,5.3,1,8.56-3.24,3.84-3,7.94-.5,12,5,8.06,9.89,16.21,15.25,24,1.43,2.08,4.37,4.29,6.68,4.36,5.35.18,7.83,3.06,10.53,7,2.43,3.58,6.05,6.36,9.28,9.36,2.24,2.07,4.64,4,7.06,5.84,3.32,2.56,6.37,6.13,10.15,7.3,11.74,3.64,15.59,8.8,14.23,21.3-.77,7-1.92,7.76-8.44,5.19-5.91-2.33-11.19,1.35-11.06,7.7.22,10-2.21,13.61-11.73,16.17-8.15,2.19-14.71,6.81-20.89,12.24-2.64,2.33-2.94,4.73-.73,7.37,2,2.42,4.31,4.64,6.27,7.11,3.4,4.28,6.34,8.93,3.87,14.61-1.53,3.52-.72,5.22,2.43,7.24,5.76,3.69,6.24,12.62,1.29,16.42-6.81-4.23-6.82-4.22-9.86-11.51-1.37-3.29-3.95-3.56-7-3.09-2.76.43-5.72,1.21-8.32.63-4-.89-7.78-2.82-11.65-4.31-2.9-1.12-6.24-1.57-6.95,2.1-1.09,5.61-4.51,6-9.1,6-10.87-.13-21.45,1.63-30,8.8-5.38,4.49-11.3,6.47-18,7.87-4.46.93-7,.66-9.12-3.7a9.16,9.16,0,0,0-5.35-4.2c-6.18-1.72-12.59-2.65-18.81-4.25-3.63-.93-5.3.18-4.85,3.74.92,7.4-1.67,13.36-6.86,18.42h-2c-.46-4.42-2.1-7.07-6.71-9.41-5.8-3-10.34-8.44-15.31-13-2.39-2.19-4.28-2.2-6.11.56-2.51,3.79-5.6,3.51-9,1.31-3.08-2-6.07-4.27-9.43-5.6-5.37-2.13-11.12-5.26-16.51-4.91-7.24.47-11.59-2.33-16-7s-10.14-5.51-15.4-2.5-6.57,6.85-4.77,14.06c-1.16.07-2.64.62-3.28.12-4.14-3.25-7.76-1.2-11.54.68-4.4,2.2-8.81,2.89-13.25-.16-.83-.57-2.58-.92-3.25-.44-5,3.55-8.6-.47-12.27-2.42-1.51-.81-2.82-4-2.53-5.79.86-5.39,2.8-10.61,3.86-16,.88-4.51,1-9.16,1.66-13.71.52-3.52.43-7.58,2.21-10.38,5.55-8.74,8.86-18.1,11-28.17.84-3.92,3.32-8.59,6.51-10.7,8.08-5.32,10.2-14,15.65-22.76-9.58-2.41-18.24-5-27.08-6.66-4.56-.87-8.36-1.72-10.14-6.57s-3.84-5.89-8.23-3.29c-6,3.56-11.25,3-16.64-1.06-3.64-2.72-7.65-3.93-12.17-1.74a3.2,3.2,0,0,1-3-.48,90.53,90.53,0,0,1-6.08-9.54c-1.27-2.3-1.4-5.68-3.2-7.17-9.68-8-7.66-15.74-1.15-24.58,3.9-5.31,2.83-7-3.39-9.44C6.69,393.55,4.45,385,2.91,376.44c-1.23-6.89,3.75-11,8.71-14.57,9.65-6.95,9.85-12.32.9-20.13-1.2-1-1.2-3.48-1.68-5.3-.43-1.62-.38-3.52-1.23-4.86A45.11,45.11,0,0,0,4.75,326C1.64,322.48.53,319,4.09,315c2.24-2.55,1.36-5-1-7.42-4.71-4.83-4-8.91,1.88-12.5.85-.52,1.76-.95,2.62-1.46,2.59-1.56,3.51-3.82,1.58-6.25-2.34-2.95-1.24-5,.79-7.41,4.12-4.88,6-10.61,3.89-16.76a150.65,150.65,0,0,0-7.41-17.31c-2.18-4.44-.95-8.09,4-8.95,2.17-.38,4.53.49,6.82.64,3.77.24,7.6.82,11.3.41A43.55,43.55,0,0,0,41,234.92c2.23-1,4.08-3.69,5.16-6,.48-1-1-3.7-2.32-4.64-2.75-2-2.2-3.29,0-4.92,3.63-2.67,7.28-5.29,10.85-8,4-3.07,6.35-11.41,4.67-16.39-1.77-5.23-6.5-4.26-10.47-4.83-1.16-.17-2.48,0-3.43-.49a4.91,4.91,0,0,1-2.45-2.67c-1.24-6,4.39-11.83,10.27-10.8,6.4,1.12,6.49,1.13,7.27-5.6.73-6.37,1.83-12.5,6.57-17.39.88-.91.9-2.74,1.13-4.17,1.12-7,2.15-14,3.29-21a52,52,0,0,1,1.37-5c-9.83-1.82-10.74-2.45-10.45-9.6.1-2.38,1.73-4.77,3-7,1-1.84,2.7-3.31,3.65-5.17,3.18-6.24,4.79-7,11.73-7a196.29,196.29,0,0,0,19.85-.81c6.58-.61,12.88,2.73,14.46,8.81.52,2-.39,4.34-.7,6.51-.21,1.49-1,4.15-.7,4.25a77.06,77.06,0,0,0,8.43,2.47c.07-2.1,1-4.69.06-6.2-2-3.23-1.56-5.46,1.22-7.93l12.83,8.64c-.32-2.8-.14-4-.62-4.94-4.12-7.67-1.3-14.57,2.46-21.24.57-1,3.37-2,4.09-1.49,8.2,5.7,16.08,1.79,24.09-.45-2.94-1.08-6.07-1.3-8.9-2.33-4.34-1.58-6.82-8.3-3.78-10.1l4.09.53c1-3.51,1.46-6.57-2-8.66-6.36-3.89-6.37-3.86-2.65-10.23.2-.35,0-.92,0-1.85-2.51,0-5,.18-7.41,0-1.85-.18-5.14-.69-5.22-1.35a10.87,10.87,0,0,1,1.35-6.52c.75-1.21,3-1.77,4.7-2,1.93-.33,4.31.63,5.89-.17,2.48-1.25,5.35-3.14,6.32-5.47.66-1.58-1.06-5.14-2.76-6.52-4.73-3.84-8.23-8.12-9.28-14.28a8.05,8.05,0,0,0-2.19-4.4C141.19,5.33,141.91,2.72,144.72,0Z"/><path class="cls-2" d="M355.09,49.56,352.73,48A40.08,40.08,0,0,0,354,43.32c.19-1.31.56-3.27-.13-3.94-3.8-3.72.39-6.67.8-9.91.06-.51,2-.78,3-1.15-1.45-7.44-1.15-8,5.16-10.4,2,7.59,2,7.54,10.28,8.18,1.19.09,3.1.72,3.29,1.46a4.51,4.51,0,0,1-1.08,3.81c-4.16,3.68-2.62,6,1.37,8.35,2.72,1.56,4.78,3.66,2.38,7.91-5.31-5.08-9.57-2.91-13.69,1.58C362.24,52.61,358.55,50.35,355.09,49.56Z"/><path class="cls-3" d="M257.84,43.1a41.68,41.68,0,0,1-3.27-5.25c-.57-1.29-1.12-3.31-.51-4.28,2-3.13,5.23-2.46,7.41-.67s3.16,4.49,4.53,6.9a9.42,9.42,0,0,1-2.59,1.69c-1.83.65-3.75,1-5.64,1.55Z"/><path class="cls-4" d="M338.32,38c-4.83,1.33-9.64,2.81-14.54,3.84-.81.17-2.77-1.56-2.86-2.55s1.31-3.47,2-3.44c5.21.24,10.4.93,15.6,1.48Z"/><path class="cls-5" d="M136.93,9.68c1.92,2.13,3.52,3.36,4.2,5,.21.49-2.4,3.12-3.25,2.91-2.1-.52-3.94-2.13-5.88-3.3Z"/><path class="cls-6" d="M139.22,79.5s11,8,19,7,18,14,21,16,19,7,25,13,7,6,12,7,13-1,16,2,14,17,18,17,26,8,30,10,13,7,14,9,2,17,0,23,0,17-2,18-7,6-9,9-8,13-5,15,13,7,13,9,1,7,5,8,29-3,31,0,6,2,6,6-2,8,2,9,6,2,8,6,8,4,9,8,7,12,8,14,3,9,5,9,19,12,22,12,17,8,19,8,4,3,2,5-4,6-5,8"/></g></g></svg>