<?xml version="1.0" encoding="iso-8859-1"?>
<!-- Generator: Adobe Illustrator 19.0.0, SVG Export Plug-In . SVG Version: 6.00 Build 0)  -->
<svg version="1.1" id="Layer_1" xmlns="http://www.w3.org/2000/svg" xmlns:xlink="http://www.w3.org/1999/xlink" x="0px" y="0px"
	 viewBox="0 0 503.465 503.465" style="enable-background:new 0 0 503.465 503.465;" xml:space="preserve">
<g transform="translate(-1)">
	<path style="fill:#A46F3E;" d="M386.885,251.162L337.477,216.9c-25.54-17.707-41.131-37.7-42.061-71.834
		c0-45.466,51.575-96.631,93.867-145.067c-129.545,25.02-136.294,148.369-136.55,167.953C252.485,148.369,245.735,25.02,116.199,0
		c42.291,48.435,93.867,99.601,93.867,145.067c-0.93,34.133-16.529,54.127-42.078,71.834l-49.408,34.261
		c-33.664,24.482-53.581,63.599-53.581,105.225c0,52.83,31.949,100.412,80.845,120.414c71.398,24.107,148.062,24.26,213.777,0l0,0
		c48.896-20.002,80.845-67.584,80.845-120.414C440.466,314.761,420.549,275.644,386.885,251.162"/>
	<g>
		<path style="fill:#6A3311;" d="M252.741,503.465c-0.452,0-0.905-0.034-1.365-0.111c-18.816-3.029-37.205-10.445-54.989-17.613
			l-2.526-1.024c-19.388-7.927-36.301-19.789-50.321-35.268c-3.166-3.49-2.901-8.892,0.597-12.049
			c3.507-3.166,8.892-2.901,12.058,0.597c12.288,13.568,27.119,23.97,44.083,30.908l2.5,1.007
			c17.69,7.134,34.389,13.867,51.311,16.597c4.651,0.751,7.817,5.129,7.066,9.779C260.481,500.478,256.854,503.465,252.741,503.465"
			/>
		<path style="fill:#6A3311;" d="M124.108,409.598c-3.482,0-6.75-2.142-8.013-5.606c-5.598-15.292-8.431-31.309-8.431-47.607
			c0-24.021,6.298-47.761,18.185-68.642c2.338-4.105,7.543-5.53,11.639-3.183c4.096,2.33,5.53,7.535,3.191,11.631
			c-10.428,18.313-15.949,39.125-15.949,60.194c0,14.293,2.483,28.339,7.39,41.745c1.621,4.429-0.657,9.327-5.077,10.94
			C126.071,409.428,125.081,409.598,124.108,409.598"/>
		<path style="fill:#6A3311;" d="M150.333,277.069c-2.057,0-4.122-0.734-5.76-2.236c-3.473-3.183-3.712-8.585-0.538-12.058
			c6.246-6.827,13.227-13.056,20.727-18.517l49.57-34.372c14.302-9.907,23.654-22.878,30.345-42.035
			c1.553-4.446,6.46-6.784,10.863-5.248c4.454,1.562,6.801,6.426,5.248,10.871c-7.945,22.784-19.277,38.34-36.736,50.441
			l-49.408,34.261c-6.426,4.668-12.535,10.138-18.014,16.119C154.949,276.139,152.645,277.069,150.333,277.069"/>
		<path style="fill:#6A3311;" d="M252.741,503.465c-2.876,0-5.683-1.451-7.287-4.087c-2.466-4.019-1.195-9.267,2.833-11.725
			c12.518-7.663,23.74-15.957,33.331-24.653c16.034-14.524,28.16-30.797,36.053-48.367c7.979-17.775,11.861-36.821,11.861-58.249
			c0-16.299-3.439-31.147-10.53-45.389c-2.099-4.215-0.375-9.344,3.84-11.443c4.215-2.091,9.353-0.375,11.443,3.84
			c8.277,16.657,12.314,33.997,12.314,52.992c0,23.552-4.488,45.5-13.355,65.246c-8.866,19.729-22.383,37.905-40.158,54.016
			c-10.385,9.412-22.46,18.347-35.9,26.564C255.796,503.064,254.26,503.465,252.741,503.465"/>
		<path style="fill:#6A3311;" d="M301.257,279.673c-2.338,0-4.685-0.964-6.366-2.85c-5.897-6.605-12.45-12.706-18.799-18.611
			c-9.583-8.917-31.898-35.285-31.898-87.543c0-4.719,3.823-8.533,8.533-8.533c4.719,0,8.533,3.814,8.533,8.533
			c0,45.542,18.5,67.652,26.453,75.051c6.323,5.879,13.483,12.544,19.908,19.738c3.14,3.516,2.833,8.909-0.683,12.049
			C305.319,278.956,303.28,279.673,301.257,279.673"/>
		<path style="fill:#6A3311;" d="M218.099,469.315c-2.048,0-4.096-0.725-5.734-2.21c-23.04-20.898-38.818-45.167-46.882-72.132
			c-4.395-14.686-6.613-30.541-6.613-47.121c0-5.478,0.341-10.914,1.015-16.145c2.108-16.119,7.433-31.147,16.29-45.961
			c2.423-4.053,7.654-5.359,11.708-2.944c4.045,2.423,5.359,7.663,2.944,11.708c-7.646,12.766-12.228,25.651-14.02,39.39
			c-0.572,4.506-0.87,9.199-0.87,13.952c0,14.925,1.98,29.133,5.897,42.231c7.262,24.286,21.001,45.338,42.001,64.375
			c3.49,3.166,3.746,8.568,0.589,12.058C222.741,468.368,220.42,469.315,218.099,469.315"/>
		<path style="fill:#6A3311;" d="M204.208,271.14c-2.022,0-4.062-0.708-5.683-2.167c-3.516-3.14-3.823-8.533-0.683-12.049
			c6.426-7.194,13.585-13.858,19.9-19.738l1.493-1.374c9.335-8.559,24.969-22.878,24.969-65.143c0-4.719,3.814-8.533,8.533-8.533
			c4.71,0,8.533,3.814,8.533,8.533c0,49.775-19.849,67.959-30.507,77.722l-1.399,1.289c-6.34,5.905-12.894,12.006-18.79,18.611
			C208.893,270.176,206.546,271.14,204.208,271.14"/>
		<path style="fill:#6A3311;" d="M252.724,503.465c-4.113,0-7.74-2.987-8.414-7.177c-0.751-4.651,2.415-9.028,7.066-9.779
			c16.922-2.731,33.621-9.464,51.311-16.597l2.551-1.024c23.194-9.498,42.65-25.694,56.226-46.839
			c2.543-3.959,7.817-5.12,11.793-2.56c3.968,2.543,5.12,7.825,2.577,11.793c-15.488,24.098-37.675,42.573-64.179,53.419
			l-2.577,1.041c-17.783,7.168-36.173,14.583-54.989,17.613C253.628,503.431,253.176,503.465,252.724,503.465"/>
		<path style="fill:#6A3311;" d="M384.149,401.069c-0.785,0-1.587-0.111-2.372-0.341c-4.531-1.314-7.134-6.042-5.828-10.573
			c3.174-10.948,4.787-22.315,4.787-33.766c0-12.928-2.056-25.711-6.084-37.99c-1.468-4.471,0.964-9.301,5.436-10.769
			c4.48-1.468,9.31,0.964,10.778,5.444c4.599,14.003,6.938,28.578,6.938,43.315c0,13.065-1.835,26.018-5.453,38.519
			C391.266,398.637,387.861,401.069,384.149,401.069"/>
		<path style="fill:#6A3311;" d="M365.641,290.136c-2.679,0-5.325-1.263-6.989-3.627c-7.731-10.991-17.143-20.557-27.989-28.45
			l-49.246-34.142c-17.459-12.1-28.791-27.657-36.745-50.441c-1.545-4.446,0.802-9.318,5.248-10.871
			c4.437-1.536,9.31,0.802,10.871,5.248c6.682,19.157,16.043,32.128,30.345,42.035l49.408,34.261
			c12.527,9.105,23.262,20.019,32.068,32.546c2.714,3.857,1.783,9.173-2.074,11.887
			C369.046,289.632,367.331,290.136,365.641,290.136"/>
		<path style="fill:#6A3311;" d="M247.116,488.511c-0.009,0-0.017,0.009-0.026,0.017
			C247.099,488.52,247.107,488.511,247.116,488.511L247.116,488.511z M247.09,488.528c-0.009,0-0.009,0.009-0.017,0.017
			C247.082,488.537,247.082,488.537,247.09,488.528L247.09,488.528z M252.731,503.462c-2.372,0-4.727-0.981-6.426-2.91
			c-2.816-3.226-2.773-7.979-0.077-11.153c0.819-1.451,6.502-13.346,6.502-62.737c0-4.71,3.814-8.533,8.533-8.533
			s8.533,3.823,8.533,8.533c0,41.711-4.062,68.233-11.452,74.692C256.733,502.77,254.736,503.462,252.731,503.462L252.731,503.462z"
			/>
		<path style="fill:#6A3311;" d="M261.266,290.132c-4.719,0-8.533-3.823-8.533-8.533c0-21.043-8.405-109.235-8.491-110.123
			c-0.452-4.693,2.987-8.858,7.68-9.31c4.77-0.401,8.858,2.995,9.301,7.689c0.35,3.661,8.576,89.899,8.576,111.744
			C269.799,286.309,265.985,290.132,261.266,290.132"/>
		<path style="fill:#6A3311;" d="M252.732,170.663c0.137-10.53,2.202-54.605,25.003-94.285
			c-1.323-22.767-4.804-44.476-11.913-61.713l-3.319-8.055c-3.601-8.713-15.94-8.713-19.541,0l-3.319,8.055
			c-7.125,17.28-10.607,38.784-11.921,61.679C250.557,116.067,252.605,160.167,252.732,170.663"/>
	</g>
</g>
<g>
</g>
<g>
</g>
<g>
</g>
<g>
</g>
<g>
</g>
<g>
</g>
<g>
</g>
<g>
</g>
<g>
</g>
<g>
</g>
<g>
</g>
<g>
</g>
<g>
</g>
<g>
</g>
<g>
</g>
</svg>
