<svg height="512pt" viewBox="0 -46 512 512" width="512pt" xmlns="http://www.w3.org/2000/svg"><path d="m493.796875 423.921875c.570313-.050781 1.109375-.101563 1.609375-.152344-.5.0625-1.039062.113281-1.609375.152344zm0 0" fill="#bfb2af"/><path d="m495.40625 423.769531c-.5.0625-1.039062.109375-1.609375.152344.570313-.050781 1.109375-.101563 1.609375-.152344zm0 0" fill="#eaddda"/><path d="m495.40625 423.769531c-.5.0625-1.039062.109375-1.609375.152344.570313-.050781 1.109375-.101563 1.609375-.152344zm0 0" fill="#bfb2af"/><path d="m360.886719 214.800781-40.710938 61.191407-12.984375-8.644532-11.96875-7.960937 40.710938-61.191407 11.976562 7.972657zm0 0" fill="#c6725a"/><path d="m29.972656 339.867188h450.296875v65.207031h-450.296875zm0 0" fill="#5b5555"/><path d="m487.855469 94.636719-1.359375 7.09375-22.007813 11.578125 10.226563 22.519531-3.613282 6.582031c-1.878906 3.40625-3.867187 6.695313-5.914062 9.769532-38.703125 58.175781-114.878906 73.691406-118.105469 74.320312l-14.566406 2.855469-.011719-.050781-2.984375-14.484376c-.660156-3.21875-15.785156-79.472656 22.917969-137.644531 38.699219-58.175781 114.875-73.6875 118.101562-74.320312l14.566407-2.855469 2.996093 14.546875c.320313 1.546875 7.695313 38.339844-.246093 80.089844zm0 0" fill="#ffa001"/><path d="m256.03125 339.867188h224.238281v65.207031h-224.238281zm0 0" fill="#383333"/><path d="m512 305.839844-.5 19.441406v91.179688l-11.769531 2.589843c-.078125.019531-.179688.039063-.277344.058594-.109375.019531-.21875.039063-.351563.070313-.230468.039062-.5.089843-.808593.140624-.089844.019532-.179688.027344-.28125.050782-.308594.046875-.65625.097656-1.035157.148437h-.011718c-19.511719-3.695312-49.953125-14.035156-89.441406-41.589843-48.445313-33.796876-91.242188-23.925782-118.605469-9.699219-13.785157 7.171875-24.945313 16.125-32.886719 23.574219-.101562.089843-.210938.191406-.3125.292968-7.960938-7.515625-19.230469-16.605468-33.195312-23.867187-27.363282-14.226563-70.164063-24.097657-118.605469 9.699219-39.472657 27.542968-69.902344 37.882812-89.414063 41.589843-1.316406-.179687-2.234375-.359375-2.734375-.46875l-11.769531-2.589843v-110.5l18.082031 4.65625c2.449219.359374 39.589844 4.964843 102.019531-38.59375 43.289063-30.199219 81.53125-21.378907 105.988282-8.671876 12.476562 6.492188 22.546875 14.617188 29.660156 21.328126.089844-.089844.191406-.179688.28125-.257813 7.089844-6.664063 17.0625-14.65625 29.378906-21.070313 24.457032-12.707031 62.699219-21.527343 105.988282 8.671876 62.429687 43.558593 99.570312 38.953124 102.019531 38.59375zm0 0" fill="#eaddda"/><path d="m512 305.839844-.5 19.441406v91.179688l-11.769531 2.589843c-.078125.019531-.179688.039063-.277344.058594-.109375.019531-.21875.039063-.351563.070313-.230468.039062-.5.089843-.808593.140624-.089844.019532-.179688.027344-.28125.050782-.308594.046875-.65625.097656-1.035157.148437h-.011718c-19.511719-3.695312-49.953125-14.035156-89.441406-41.589843-48.445313-33.796876-91.242188-23.925782-118.605469-9.699219-13.785157 7.171875-24.945313 16.125-32.886719 23.574219v-107.382813c7.089844-6.664063 17.0625-14.65625 29.378906-21.070313 24.457032-12.707031 62.699219-21.527343 105.988282 8.671876 62.429687 43.558593 99.570312 38.953124 102.019531 38.59375zm0 0" fill="#bfb2af"/><path d="m0 390.089844h511.5v29.96875h-511.5zm0 0" fill="#bde339"/><path d="m256.03125 390.089844h255.46875v29.96875h-255.46875zm0 0" fill="#8dbc42"/><path d="m487.855469 94.636719-1.359375 7.09375-22.007813 11.578125 10.226563 22.519531-3.613282 6.582031c-1.878906 3.40625-3.867187 6.695313-5.914062 9.769532-38.703125 58.175781-114.878906 73.691406-118.105469 74.320312l-14.566406 2.855469-.011719-.050781 152.601563-229.304688 2.996093 14.546875c.320313 1.546875 7.695313 38.339844-.246093 80.089844zm0 0" fill="#f77e01"/></svg>